Genre:Drama
Language:English  http://www.imdb.com/title/tt1371117/
Source:BluRay.x264-aAF


Format : Matroska
File size : 1.68 GiB
Duration : 1h 43mn
Overall bit rate : 2 328 Kbps


Video
Format settings, CABAC : Yes
Format settings, ReFrames : 4 frames
Format settings, GOP : M=1, N=32
Codec ID : V_MPEG4/ISO/AVC
Duration : 1h 43mn
Bit rate : 1 898 Kbps
Nominal bit rate : 2 000 Kbps
Width : 1 280 pixels
Height : 720 pixels
Display aspect ratio : 16:9
Frame rate mode : Variable
Frame rate : 23.976 fps
Color space : YUV
Chroma subsampling : 4:2:0
Bit depth : 8 bits
Scan type : Progressive
Bits/(Pixel*Frame) : 0.086
Stream size : 1.37 GiB (82%)
Writing library : x264


Audio
ID : 2
Format : AC-3
Format/Info : Audio Coding 3
Mode extension : CM (complete main)
Codec ID : A_AC3
Duration : 1h 43mn
Bit rate mode : Constant
Bit rate : 384 Kbps
Channel(s) : 6 channels
Channel positions : Front: L C R, Side: L R, LFE
Sampling rate : 48.0 KHz
Bit depth : 16 bits
Video delay : -1mn 5s
Stream size : 283 MiB (16%)
Language : English


Plot:
A chronicle of the interaction between college student Jason Moss and the object of his obsession, serial killer John Wayne Gacy.

